<?xml version="1.0" encoding="UTF-8"?>
<svg width="774px" height="124px" viewBox="0 0 774 124" version="1.1" xmlns="http://www.w3.org/2000/svg" xmlns:xlink="http://www.w3.org/1999/xlink">
    <!-- Generator: Sketch 62 (91390) - https://sketch.com -->
    <title>Group</title>
    <desc>Created with Sketch.</desc>
    <g id="Page-1" stroke="none" stroke-width="1" fill="none" fill-rule="evenodd">
        <g id="ONEDAY-BrandManual" transform="translate(-573.000000, -607.000000)">
            <g id="Group" transform="translate(573.524000, 607.817400)">
                <polygon id="Fill-13" fill="#0C0A09" points="151.4208 1.1865 182.6138 1.1865 232.2488 64.9535 232.2488 1.1865 265.3378 1.1865 265.3378 121.8245 236.0398 121.8245 184.5098 55.6465 184.5098 121.8245 151.4208 121.8245"></polygon>
                <polygon id="Fill-15" fill="#0C0A09" points="291.1083 1.1865 388.1363 1.1865 388.1363 29.6235 324.1983 29.6235 324.1983 47.8895 382.1053 47.8895 382.1053 74.2585 324.1983 74.2585 324.1983 93.3885 388.9973 93.3885 388.9973 121.8245 291.1083 121.8245"></polygon>
                <path d="M457.4125,92.1821 C477.4035,92.1821 490.6735,81.1521 490.6735,61.6791 L490.6735,61.3331 C490.6735,42.0321 477.4035,30.8291 457.4125,30.8291 L443.7965,30.8291 L443.7965,92.1821 L457.4125,92.1821 Z M410.3625,1.1861 L456.8945,1.1861 C499.9795,1.1861 524.9705,26.0041 524.9705,60.8171 L524.9705,61.1601 C524.9705,95.9741 499.6345,121.8241 456.2055,121.8241 L410.3625,121.8241 L410.3625,1.1861 Z" id="Fill-17" fill="#0C0A09"></path>
                <path d="M608.8959,74.2583 L595.4529,39.9643 L581.8369,74.2583 L608.8959,74.2583 Z M579.5969,0.3243 L611.8259,0.3243 L663.1839,121.8243 L627.3339,121.8243 L618.5469,100.2823 L572.0139,100.2823 L563.3969,121.8243 L528.2399,121.8243 L579.5969,0.3243 Z" id="Fill-19" fill="#0C0A09"></path>
                <polygon id="Fill-21" fill="#0C0A09" points="693.561 76.6719 647.718 1.1869 685.807 1.1869 710.623 45.1339 735.613 1.1869 773.01 1.1869 727.166 76.1549 727.166 121.8239 693.561 121.8239"></polygon>
                <path d="M51.519,90.9028 C40.915,85.5668 34.295,74.1278 34.295,61.5058 L34.295,61.1598 C34.295,48.4248 40.851,37.0838 51.519,31.9088 L51.519,0.0758 C21.311,5.9778 0,31.2398 0,61.5058 L0,61.8508 C0,92.2238 21.202,117.2908 51.519,123.0078 L51.519,90.9028 Z" id="Fill-23" fill="#E98443"></path>
                <path d="M78.4262,2.84217094e-14 L78.4262,32.054 C89.1572,37.368 95.8212,48.839 95.8212,61.505 L95.8212,61.851 C95.8212,74.625 89.2252,86 78.4262,91.151 L78.4262,122.931 C108.6342,117.031 129.9462,91.769 129.9462,61.505 L129.9462,61.16 C129.9462,30.787 108.7432,5.716 78.4262,2.84217094e-14" id="Fill-25" fill="#E98443"></path>
            </g>
        </g>
    </g>
</svg>